PathFileType	4	(X/Y/Z)	/Users/itak/Documents/Research/Walk-IL/dataset/trc/00246_00009.trc
DataRate	CameraRate	NumFrames	NumMarkers	Units	OrigDataRate	OrigDataStartFrame	OrigNumFrames
100.000000	100.000000	4	53	mm	100.000000	209	837
Frame#	Time	RPSI			LPSI			L3			STRN			T10			C7			CLAV			RBAK			LBAK			LSHO			LUPA			LAEL			LAOL			LWTS			LWPS			LFRA			LIFD			LHPS			LHTS			RSHO			RUPA			RAEL			RAOL			RWTS			RWPS			RFRA			RIFD			RHTS			RHPS			RBHD			LFHD			RFHD			LBHD			LHIP			RHIP			RASI			LASI			LKNE			LTHI			LANK			LTIP			LTOE			LMT1			LMT5			LHEE			RKNE			RTHI			RANK			RTIP			RTOE			RMT1			RMT5			RHEE			
		X1	Y1	Z1	X2	Y2	Z2	X3	Y3	Z3	X4	Y4	Z4	X5	Y5	Z5	X6	Y6	Z6	X7	Y7	Z7	X8	Y8	Z8	X9	Y9	Z9	X10	Y10	Z10	X11	Y11	Z11	X12	Y12	Z12	X13	Y13	Z13	X14	Y14	Z14	X15	Y15	Z15	X16	Y16	Z16	X17	Y17	Z17	X18	Y18	Z18	X19	Y19	Z19	X20	Y20	Z20	X21	Y21	Z21	X22	Y22	Z22	X23	Y23	Z23	X24	Y24	Z24	X25	Y25	Z25	X26	Y26	Z26	X27	Y27	Z27	X28	Y28	Z28	X29	Y29	Z29	X30	Y30	Z30	X31	Y31	Z31	X32	Y32	Z32	X33	Y33	Z33	X34	Y34	Z34	X35	Y35	Z35	X36	Y36	Z36	X37	Y37	Z37	X38	Y38	Z38	X39	Y39	Z39	X40	Y40	Z40	X41	Y41	Z41	X42	Y42	Z42	X43	Y43	Z43	X44	Y44	Z44	X45	Y45	Z45	X46	Y46	Z46	X47	Y47	Z47	X48	Y48	Z48	X49	Y49	Z49	X50	Y50	Z50	X51	Y51	Z51	X52	Y52	Z52	X53	Y53	Z53	

210	2.09	-394.88232421875	1009.880187988281	585.4498901367188	-489.2599182128906	1020.946166992188	659.477294921875	-449.5939025878906	1099.409423828125	640.7322998046875	-600.2071533203125	1284.709350585938	440.17431640625	-440.8984680175781	1226.46875	639.2600708007812	-476.2000122070312	1488.3681640625	585.9000244140625	-578.9832763671875	1401.964111328125	456.8584899902344	-375.56591796875	1347.068725585938	605.8720703125	-551.8333129882812	1453.218872070312	671.08984375	-650.8802490234375	1455.659912109375	634.1160888671875	-699.6235961914062	1340.507934570312	705.595458984375	-749.6121215820312	1134.299560546875	711.161865234375	-670.625	1109.213500976562	739.6268920898438	-780.5838012695312	917.7882690429688	577.7740478515625	-832.1326904296875	898.7493896484375	641.8829956054688	-785.3839111328125	1032.050659179688	690.346435546875	-815.1553955078125	728.2809448242188	550.9695434570312	-850.7675170898438	815.7872314453125	613.6578979492188	-830.78857421875	826.4226684570312	548.7996826171875	-378.9256896972656	1439.125122070312	436.8549499511719	-314.8325805664062	1371.890869140625	414.9390258789062	-274.2151184082031	1091.755126953125	424.3384094238281	-330.3013610839844	1087.5068359375	501.9461669921875	-374.0750427246094	868.8241577148438	345.12646484375	-290.3182983398438	860.4712524414062	354.2133483886719	-275.7003784179688	1022.967102050781	399.2593688964844	-374.8691101074219	675.2503662109375	347.8731994628906	-375.0237121582031	744.3065185546875	311.032958984375	-304.383056640625	751.1607666015625	325.8969116210938	-449.3616638183594	1635.461181640625	522.4505615234375	-640.6671142578125	1699.778442382812	416.1877136230469	-559.373046875	1691.072265625	357.0442810058594	-582.00537109375	1655.317016601562	564.50048828125	-662.3819580078125	963.6146240234375	677.2587280273438	-382.2874450683594	974.3202514648438	440.5669860839844	-471.0303649902344	1019.881164550781	393.71142578125	-692.2113647460938	1005.315002441406	568.5156860351562	-602.568115234375	483.9595031738281	678.77783203125	-638.770751953125	625.6290283203125	676.01025390625	-379.0435485839844	81.35735321044922	874.4934692382812	-497.5580749511719	302.3980102539062	787.987060546875	-512.8673706054688	43.57964324951172	712.3587036132812	-436.8335876464844	49.52127838134766	714.1845703125	-483.2251892089844	36.89785385131836	821.4819946289062	-305.7764282226562	117.8549728393555	863.5714721679688	-554.081787109375	512.1402587890625	352.1964111328125	-452.7694091796875	765.7915649414062	360.8416137695312	-627.0195922851562	34.07190704345703	414.8966369628906	-597.1991577148438	395.3468933105469	347.5317077636719	-747.5564575195312	52.42537689208984	237.0049438476562	-766.0490112304688	46.46358871459961	305.375732421875	-647.8822021484375	39.98905944824219	304.5549621582031	-658.8570556640625	33.5588493347168	493.9170532226562	
211	2.1	-399.7730407714844	1010.828979492188	579.4121704101562	-494.5195617675781	1021.629211425781	652.9535522460938	-454.5826416015625	1100.435913085938	634.5999145507812	-603.6439208984375	1286.007690429688	433.3789978027344	-446.1618347167969	1227.408203125	633.4005737304688	-480.3882141113281	1489.340087890625	580.0657958984375	-582.2650146484375	1403.212646484375	450.2811889648438	-380.147705078125	1347.756591796875	600.7173461914062	-556.5172119140625	1454.480224609375	664.691650390625	-655.4761962890625	1457.112915039062	627.0455932617188	-704.1369018554688	1341.758666992188	698.4944458007812	-751.6868286132812	1134.980346679688	704.98681640625	-672.2885131835938	1110.94140625	733.3162841796875	-780.872802734375	916.6229858398438	574.0557861328125	-831.6813354492188	897.6424560546875	638.7979125976562	-786.3770141601562	1032.0869140625	685.4252319335938	-812.6806640625	726.1264038085938	549.9108276367188	-849.3701171875	814.0745849609375	611.76611328125	-829.8983154296875	824.1027221679688	546.6498413085938	-381.9289855957031	1440.032348632812	431.8235168457031	-317.7708740234375	1372.70703125	410.4044799804688	-277.8583068847656	1092.532104492188	420.4955749511719	-334.7988891601562	1088.434936523438	497.444580078125	-376.7017517089844	869.5060424804688	340.4178771972656	-293.2065124511719	861.25	350.3842468261719	-279.1493225097656	1023.728576660156	395.4627075195312	-377.3052368164062	675.854736328125	343.6871643066406	-377.302001953125	744.9012451171875	306.8243713378906	-306.7774047851562	751.8687133789062	322.1477966308594	-452.7281494140625	1636.443481445312	516.7819213867188	-642.938232421875	1700.857543945312	408.7067260742188	-561.1649780273438	1691.870971679688	350.3411254882812	-585.6159057617188	1656.631225585938	557.6266479492188	-667.7384033203125	964.0682983398438	669.3828125	-386.024169921875	975.7160034179688	434.3766479492188	-474.3927917480469	1021.38720703125	387.2623596191406	-696.4995727539062	1006.073486328125	560.6703491210938	-612.8539428710938	483.4908142089844	669.0199584960938	-647.064208984375	625.5079345703125	666.5025024414062	-382.6731262207031	87.41172790527344	873.4561767578125	-505.0496215820312	305.7334594726562	782.0020751953125	-513.1942749023438	43.45923614501953	712.4650268554688	-437.9936218261719	50.7403450012207	713.8592529296875	-484.2453308105469	37.48844528198242	820.750732421875	-310.8754577636719	126.6101760864258	861.6271362304688	-556.651123046875	512.21142578125	348.4696655273438	-455.9443054199219	766.2660522460938	355.289794921875	-627.2405395507812	34.38541030883789	414.7018737792969	-599.481201171875	395.2293395996094	344.6062622070312	-748.5230102539062	50.76506423950195	236.6637878417969	-766.5684204101562	45.30334091186523	305.2022705078125	-648.3016967773438	40.17790985107422	304.3599853515625	-658.8668823242188	33.75255966186523	493.7833557128906	
212	2.11	-404.3985595703125	1011.872436523438	573.2162475585938	-499.4736938476562	1022.372009277344	646.3329467773438	-459.3152160644531	1101.5615234375	628.2543334960938	-607.02392578125	1287.35107421875	426.6278381347656	-451.3033447265625	1228.3486328125	627.419677734375	-484.48779296875	1490.341552734375	574.2465209960938	-585.5028076171875	1404.506591796875	443.7474975585938	-384.6230163574219	1348.493774414062	595.4986572265625	-561.1067504882812	1455.759399414062	658.31982421875	-659.9505004882812	1458.591552734375	620.021728515625	-708.5914916992188	1343.107421875	691.45361328125	-753.8412475585938	1135.797729492188	698.9075317382812	-674.0890502929688	1112.804077148438	727.2353515625	-781.1251831054688	915.6396484375	570.4883422851562	-831.2239379882812	896.7134399414062	635.8009033203125	-787.4349365234375	1032.296020507812	680.5814208984375	-809.9521484375	724.1224975585938	549.1226806640625	-847.8722534179688	812.5276489257812	610.0086059570312	-828.806396484375	821.9055786132812	544.6607055664062	-384.9133605957031	1441.033203125	426.7712707519531	-320.6701049804688	1373.640869140625	405.8266296386719	-281.4034729003906	1093.413940429688	416.6537475585938	-339.2026672363281	1089.4794921875	492.9018859863281	-379.4576110839844	870.4268798828125	335.5647583007812	-296.2190246582031	862.1278686523438	346.4922180175781	-282.5177612304688	1024.591186523438	391.6351318359375	-380.096923828125	676.6959228515625	339.2561340332031	-379.81591796875	745.7545776367188	302.3929443359375	-309.436279296875	752.710693359375	318.2633056640625	-456.0501403808594	1637.47705078125	511.1529846191406	-645.13671875	1701.95703125	401.2573547363281	-562.8948974609375	1692.68212890625	343.6742553710938	-589.1707763671875	1658.005493164062	550.788818359375	-672.7354736328125	964.5980834960938	661.593505859375	-389.6016540527344	977.0901489257812	428.0946960449219	-477.69921875	1022.8740234375	380.7630004882812	-700.6982421875	1006.971984863281	552.8768920898438	-623.831787109375	483.0473022460938	659.0905151367188	-655.7388305664062	625.4547729492188	656.9642944335938	-387.0757751464844	94.08076477050781	872.2047729492188	-513.3640747070312	309.22216796875	775.6121826171875	-513.5902099609375	43.23732376098633	712.50048828125	-439.3182678222656	52.12656784057617	713.4376220703125	-485.6164855957031	38.48515701293945	819.8436889648438	-316.9261474609375	135.9668884277344	859.44384765625	-558.7371826171875	512.1193237304688	345.2046203613281	-458.8228454589844	766.6046752929688	349.8493957519531	-627.4557495117188	34.62411880493164	414.5727233886719	-601.2787475585938	395.0047302246094	342.070068359375	-749.2776489257812	49.46683883666992	236.4353790283203	-767.0083618164062	44.40304946899414	305.0558471679688	-648.6312255859375	40.32207870483398	304.2192687988281	-658.8846435546875	33.8857536315918	493.7030334472656	
213	2.12	-408.7560119628906	1012.988403320312	566.9256591796875	-504.1309814453125	1023.141845703125	639.671142578125	-463.80078125	1102.7333984375	621.735595703125	-610.34814453125	1288.689819335938	419.9267883300781	-456.2759399414062	1229.25244140625	621.3153686523438	-488.4907836914062	1491.336181640625	568.4341430664062	-588.6991577148438	1405.796875	437.2623291015625	-388.9768371582031	1349.256591796875	590.2144775390625	-565.578369140625	1457.002319335938	651.97705078125	-664.2874755859375	1460.03857421875	613.0733032226562	-712.9486083984375	1344.491943359375	684.5156860351562	-756.0955200195312	1136.702758789062	692.9218139648438	-676.0721435546875	1114.742431640625	721.4105834960938	-781.3583984375	914.8199462890625	567.05810546875	-830.8084716796875	895.936767578125	632.8431396484375	-788.592041015625	1032.632080078125	675.7988891601562	-807.0387573242188	722.2800903320312	548.5791625976562	-846.322265625	811.12158203125	608.3220825195312	-827.5283203125	819.823486328125	542.78125	-387.8876647949219	1442.078369140625	421.6826171875	-323.5395202636719	1374.643188476562	401.18701171875	-284.830810546875	1094.355102539062	412.7729187011719	-343.4587097167969	1090.59130859375	488.3134155273438	-382.346923828125	871.53564453125	330.5806274414062	-299.3497314453125	863.0510864257812	342.5145568847656	-285.7951049804688	1025.507202148438	387.7437438964844	-383.2882995605469	677.7340087890625	334.5613098144531	-382.5882568359375	746.8264770507812	297.7073669433594	-312.3895568847656	753.6282958984375	314.2173767089844	-459.3157958984375	1638.520263671875	505.5729370117188	-647.2659912109375	1703.052490234375	393.8605651855469	-564.5599975585938	1693.483642578125	337.0621948242188	-592.6771850585938	1659.398803710938	544.0057983398438	-677.3775634765625	965.14501953125	653.92333984375	-393.0426025390625	978.4180908203125	421.7690124511719	-480.9342346191406	1024.296997070312	374.2501220703125	-704.768310546875	1007.94091796875	545.1818237304688	-635.38525390625	482.6346435546875	649.0272216796875	-664.7442016601562	625.459228515625	647.4378051757812	-392.3127746582031	101.3434066772461	870.697998046875	-522.5084228515625	312.766845703125	768.7915649414062	-514.158447265625	42.87821197509766	712.3615112304688	-440.875732421875	53.74359893798828	712.8717651367188	-487.4761047363281	40.05766677856445	818.7045288085938	-323.9612426757812	145.8356323242188	857.0443725585938	-560.4296875	511.9218139648438	342.2759094238281	-461.4806213378906	766.86962890625	344.5224914550781	-627.6509399414062	34.79349899291992	414.4975891113281	-602.6746215820312	394.709228515625	339.8292236328125	-749.8377685546875	48.49250030517578	236.2971649169922	-767.3733520507812	43.72982025146484	304.9384155273438	-648.8729248046875	40.42127227783203	304.12451171875	-658.9017333984375	33.97165298461914	493.6636962890625	
